# xmcd
#
# Track frame offsets:
#	150
#	41725
#	65665
#	102175
#	127900
#	176687
#
# Disc length: 2785 seconds
#
# Revision: 0
# Processed by: cddbd v1.5.2PL0 Copyright (c) Steve Scherf et al.
# Submitted via: audiograbber 1.82.00
#
DISCID=4e0adf06
DTITLE=Canned Heat - Santana - The Essential Collection CD1
DYEAR=1900
DGENRE=Blues
TTITLE0=Canned Heat - It Hurts Me Too (When Things Go Wrong)
TTITLE1=Canned Heat - I'd Rather Be The Devil
TTITLE2=Canned Heat - I Wish You Would
TTITLE3=Canned Heat - Dust My Broom
TTITLE4=Canned Heat - Sweet Sixteen
TTITLE5=Canned Heat - Bull Frog Blues
EXTD=
EXTT0=
EXTT1=
EXTT2=
EXTT3=
EXTT4=
EXTT5=
PLAYORDER=
